<svg xmlns="http://www.w3.org/2000/svg" id="a" data-name="Ebene 1" viewBox="0 0 311.85 60.96"><path d="m60.96,30.48c0,16.83-13.65,30.48-30.48,30.48S0,47.31,0,30.48,13.65,0,30.48,0s30.48,13.65,30.48,30.48Zm-29.74,5.06c0,6.95-2.65,8.87-6.88,8.87-1.99,0-3.77-.33-5.16-.79l-1.13,8.14c1.99.66,5.03,1.06,7.34,1.06,9.79,0,15.88-4.43,15.88-17.14V7.48h-10.06v28.06Z" style="fill: #ed1c24; stroke-width: 0px;"></path><g><path d="m78.6,13.96h10.61c5.94,0,8.67,3.26,8.67,8.05,0,3.21-1.5,5.46-4.31,6.64,4.05.97,5.37,4.14,5.37,7.53,0,4.66-2.86,8.58-9.02,8.58h-11.31c-.84,0-1.41-.57-1.41-1.41V15.36c0-.84.57-1.41,1.41-1.41Zm2.68,13.29h7.26c3.08,0,5.19-1.67,5.19-4.97s-2.07-4.8-5.19-4.8h-7.26v9.77Zm0,3.34v10.65h8.01c3.26,0,5.54-1.63,5.54-5.28s-2.16-5.37-5.54-5.37h-8.01Z" style="fill: #fff; stroke-width: 0px;"></path><path d="m113.89,21.66c6.69,0,11.79,5.02,11.79,11.88s-5.11,11.88-11.79,11.88-11.79-5.06-11.79-11.88,5.06-11.88,11.79-11.88Zm0,20.55c4.44,0,7.92-3.48,7.92-8.67s-3.39-8.67-7.92-8.67-7.92,3.52-7.92,8.67,3.43,8.67,7.92,8.67Z" style="fill: #fff; stroke-width: 0px;"></path><path d="m149.45,44.76c-.84,0-1.41-.53-1.41-1.36v-2.02c-2.24,2.73-4.93,4.05-8.41,4.05-6.03,0-11.13-4.93-11.13-11.88s5.06-11.88,11.13-11.88c3.48,0,6.42,1.45,8.27,3.96v-10.25c0-.84.57-1.41,1.41-1.41h1.01c.84,0,1.41.57,1.41,1.41v27.99c0,.84-.57,1.41-1.41,1.41h-.88Zm-9.15-2.55c4.4,0,7.83-3.56,7.83-8.67s-3.43-8.67-7.83-8.67-7.92,3.48-7.92,8.67,3.52,8.67,7.92,8.67Z" style="fill: #fff; stroke-width: 0px;"></path><path d="m159.69,34.77c.62,4.88,4.14,7.44,7.97,7.44,3.08,0,5.5-1.5,6.69-3.65.26-.48.79-.84,1.32-.84h1.06c.84,0,1.36.4,1.36,1.01,0,.22-.09.48-.22.75-1.98,3.79-5.68,5.94-10.25,5.94-6.51,0-11.75-4.84-11.75-11.88s5.15-11.88,11.75-11.88c5.41,0,11.4,3.52,11.4,11,0,1.14-.09,2.11-1.23,2.11h-18.09Zm.13-3.21h15.53c-.62-4.4-4.09-6.69-7.75-6.69s-7,2.46-7.79,6.69Z" style="fill: #fff; stroke-width: 0px;"></path><path d="m184.55,22.32h.88c.84,0,1.41.57,1.41,1.41v1.76c2.07-2.64,4.84-3.83,7.88-3.83,5.63,0,8.14,3.43,8.14,8.58v13.11c0,.84-.57,1.41-1.41,1.41h-1.01c-.84,0-1.41-.57-1.41-1.41v-12.72c0-3.56-1.89-5.72-5.32-5.72s-6.73,2.9-6.73,6.73v11.71c0,.84-.57,1.41-1.41,1.41h-1.01c-.84,0-1.41-.57-1.41-1.41v-19.63c0-.84.57-1.41,1.41-1.41Z" style="fill: #fff; stroke-width: 0px;"></path><path d="m208.31,23.72c0-.84.57-1.41,1.41-1.41h1.01c.84,0,1.41.57,1.41,1.41v23.1c0,4.53-1.32,6.78-5.72,6.78-.79,0-1.76-.04-2.68-.22-.62-.13-1.01-.7-1.01-1.32v-.75c0-1.01.62-1.06,1.36-1.06.48.09,1.01.13,1.41.13,2.24,0,2.82-1.45,2.82-3.65v-23.02Zm-.57-7.44c0-1.36,1.01-2.46,2.46-2.46s2.51,1.1,2.51,2.46-1.01,2.46-2.51,2.46-2.46-1.1-2.46-2.46Z" style="fill: #fff; stroke-width: 0px;"></path><path d="m237.22,44.76c-.84,0-1.41-.53-1.41-1.36v-2.07c-2.2,2.77-4.93,4.09-8.41,4.09-6.03,0-11.13-4.93-11.13-11.88s5.06-11.88,11.13-11.88c3.48,0,6.42,1.41,8.27,3.96v-1.89c0-.84.57-1.41,1.41-1.41h1.01c.84,0,1.41.57,1.41,1.41v19.63c0,.84-.57,1.41-1.41,1.41h-.88Zm-9.15-2.55c4.4,0,7.83-3.61,7.83-8.67s-3.43-8.67-7.83-8.67-7.92,3.52-7.92,8.67,3.52,8.67,7.92,8.67Zm-6.38-26.14c0-1.28.92-2.29,2.29-2.29s2.29,1.01,2.29,2.29-.92,2.29-2.29,2.29-2.29-1.01-2.29-2.29Zm8.54,0c0-1.28.92-2.29,2.29-2.29s2.29,1.01,2.29,2.29-.92,2.29-2.29,2.29-2.29-1.01-2.29-2.29Z" style="fill: #fff; stroke-width: 0px;"></path><path d="m262.57,40.54c-1.94,2.55-4.88,3.78-8.27,3.78-5.98,0-10.65-5.02-10.65-11.31s4.31-11.35,10.69-11.35c3.74,0,6.42,1.45,8.27,3.79v-1.76c0-.84.62-1.36,1.41-1.36h.97c.84,0,1.41.57,1.41,1.41v19.71c0,6.29-3.96,10.17-10.74,10.17-4.8,0-8.85-1.89-10.34-5.81-.09-.18-.09-.35-.09-.53,0-.66.48-1.1,1.32-1.1h1.06c.7,0,1.23.44,1.5,1.06,1.01,2.2,3.48,3.21,6.56,3.21,4.22,0,6.91-2.33,6.91-6.91v-2.99Zm-7.35.62c4.4,0,7.66-3.48,7.66-8.14s-3.12-8.14-7.66-8.14-7.66,3.61-7.66,8.14,3.21,8.14,7.66,8.14Z" style="fill: #fff; stroke-width: 0px;"></path><path d="m274.36,34.77c.62,4.88,4.14,7.44,7.97,7.44,3.08,0,5.5-1.5,6.69-3.65.26-.48.79-.84,1.32-.84h1.06c.84,0,1.36.4,1.36,1.01,0,.22-.09.48-.22.75-1.98,3.79-5.68,5.94-10.25,5.94-6.51,0-11.75-4.84-11.75-11.88s5.15-11.88,11.75-11.88c5.41,0,11.4,3.52,11.4,11,0,1.14-.09,2.11-1.23,2.11h-18.09Zm.13-3.21h15.53c-.62-4.4-4.09-6.69-7.75-6.69s-7,2.46-7.79,6.69Z" style="fill: #fff; stroke-width: 0px;"></path><path d="m299.22,44.76c-.84,0-1.41-.57-1.41-1.41v-19.63c0-.84.57-1.41,1.41-1.41h.88c.79,0,1.41.57,1.41,1.36v3.48h.18c1.67-3.34,5.5-5.28,8.93-5.28.75,0,1.23.53,1.23,1.32v.88c0,.84-.57,1.41-1.41,1.5-4.8.44-8.8,3.43-8.8,10.43v7.35c0,.84-.57,1.41-1.41,1.41h-1.01Z" style="fill: #fff; stroke-width: 0px;"></path></g></svg>